<svg width="700" height="700" xmlns="http://www.w3.org/2000/svg" version="1.1">

 <g>
  <title>Layer 1</title>
  <path stroke="null" fill="#666666" id="svg_1" d="m53.04997,2.00001c-28.5353,0 -52.05,23.65023 -52.05,52.35l0,104.69999c0,28.69976 23.5147,52.35 52.05,52.35l104.10001,0c28.5353,0 52.05,-23.65023 52.05,-52.35l0,-104.69999c0,-28.69976 -23.5147,-52.35 -52.05,-52.35l-104.10001,0zm242.90002,0c-28.5353,0 -52.05,23.65023 -52.05,52.35l0,104.69999c0,28.69976 23.5147,52.35 52.05,52.35l104.10001,0c28.5353,0 52.05,-23.65023 52.05,-52.35l0,-104.69999c0,-28.69976 -23.5147,-52.35 -52.05,-52.35l-104.10001,0zm242.90002,0c-28.5353,0 -52.05,23.65023 -52.05,52.35l0,104.69999c0,28.69976 23.5147,52.35 52.05,52.35l104.10001,0c28.5353,0 52.05,-23.65023 52.05,-52.35l0,-104.69999c0,-28.69976 -23.5147,-52.35 -52.05,-52.35l-104.10001,0zm-485.80004,244.29998c-28.5353,0 -52.05,23.65023 -52.05,52.35l0,104.69999c0,28.69976 23.5147,52.35 52.05,52.35l104.10001,0c28.5353,0 52.05,-23.65023 52.05,-52.35l0,-104.69999c0,-28.69976 -23.5147,-52.35 -52.05,-52.35l-104.10001,0zm242.90002,0c-28.5353,0 -52.05,23.65023 -52.05,52.35l0,104.69999c0,28.69976 23.5147,52.35 52.05,52.35l104.10001,0c28.5353,0 52.05,-23.65023 52.05,-52.35l0,-104.69999c0,-28.69976 -23.5147,-52.35 -52.05,-52.35l-104.10001,0zm242.90002,0c-28.5353,0 -52.05,23.65023 -52.05,52.35l0,104.69999c0,28.69976 23.5147,52.35 52.05,52.35l104.10001,0c28.5353,0 52.05,-23.65023 52.05,-52.35l0,-104.69999c0,-28.69976 -23.5147,-52.35 -52.05,-52.35l-104.10001,0zm-485.80004,244.29998c-28.5353,0 -52.05,23.65023 -52.05,52.35l0,104.69999c0,28.69976 23.5147,52.35 52.05,52.35l104.10001,0c28.5353,0 52.05,-23.65023 52.05,-52.35l0,-104.69999c0,-28.69976 -23.5147,-52.35 -52.05,-52.35l-104.10001,0zm242.90002,0c-28.5353,0 -52.05,23.65023 -52.05,52.35l0,104.69999c0,28.69976 23.5147,52.35 52.05,52.35l104.10001,0c28.5353,0 52.05,-23.65023 52.05,-52.35l0,-104.69999c0,-28.69976 -23.5147,-52.35 -52.05,-52.35l-104.10001,0zm242.90002,0c-28.5353,0 -52.05,23.65023 -52.05,52.35l0,104.69999c0,28.69976 23.5147,52.35 52.05,52.35l104.10001,0c28.5353,0 52.05,-23.65023 52.05,-52.35l0,-104.69999c0,-28.69976 -23.5147,-52.35 -52.05,-52.35l-104.10001,0z"/>
 </g>
</svg>