<svg width="700" height="700" xmlns="http://www.w3.org/2000/svg" version="1.1">

 <g>
  <title>Layer 1</title>
  <path fill="#666666" id="svg_1" d="m209.25,104c-14.391,0 -26.25,11.859 -26.25,26.25l0,52.5c0,14.391 11.859,26.25 26.25,26.25l52.5,0c14.391,0 26.25,-11.859 26.25,-26.25l0,-52.5c0,-14.391 -11.859,-26.25 -26.25,-26.25l-52.5,0zm122.5,0c-14.391,0 -26.25,11.859 -26.25,26.25l0,52.5c0,14.391 11.859,26.25 26.25,26.25l52.5,0c14.391,0 26.25,-11.859 26.25,-26.25l0,-52.5c0,-14.391 -11.859,-26.25 -26.25,-26.25l-52.5,0zm122.5,0c-14.391,0 -26.25,11.859 -26.25,26.25l0,52.5c0,14.391 11.859,26.25 26.25,26.25l52.5,0c14.391,0 26.25,-11.859 26.25,-26.25l0,-52.5c0,-14.391 -11.859,-26.25 -26.25,-26.25l-52.5,0zm-245,122.5c-14.391,0 -26.25,11.859 -26.25,26.25l0,52.5c0,14.391 11.859,26.25 26.25,26.25l52.5,0c14.391,0 26.25,-11.859 26.25,-26.25l0,-52.5c0,-14.391 -11.859,-26.25 -26.25,-26.25l-52.5,0zm122.5,0c-14.391,0 -26.25,11.859 -26.25,26.25l0,52.5c0,14.391 11.859,26.25 26.25,26.25l52.5,0c14.391,0 26.25,-11.859 26.25,-26.25l0,-52.5c0,-14.391 -11.859,-26.25 -26.25,-26.25l-52.5,0zm122.5,0c-14.391,0 -26.25,11.859 -26.25,26.25l0,52.5c0,14.391 11.859,26.25 26.25,26.25l52.5,0c14.391,0 26.25,-11.859 26.25,-26.25l0,-52.5c0,-14.391 -11.859,-26.25 -26.25,-26.25l-52.5,0zm-245,122.5c-14.391,0 -26.25,11.859 -26.25,26.25l0,52.5c0,14.391 11.859,26.25 26.25,26.25l52.5,0c14.391,0 26.25,-11.859 26.25,-26.25l0,-52.5c0,-14.391 -11.859,-26.25 -26.25,-26.25l-52.5,0zm122.5,0c-14.391,0 -26.25,11.859 -26.25,26.25l0,52.5c0,14.391 11.859,26.25 26.25,26.25l52.5,0c14.391,0 26.25,-11.859 26.25,-26.25l0,-52.5c0,-14.391 -11.859,-26.25 -26.25,-26.25l-52.5,0zm122.5,0c-14.391,0 -26.25,11.859 -26.25,26.25l0,52.5c0,14.391 11.859,26.25 26.25,26.25l52.5,0c14.391,0 26.25,-11.859 26.25,-26.25l0,-52.5c0,-14.391 -11.859,-26.25 -26.25,-26.25l-52.5,0z"/>
 </g>
</svg>